<svg width="20" height="20" viewBox="0 0 20 20" fill="none" xmlns="http://www.w3.org/2000/svg">
<path d="M15.1166 18.0147C14.3833 18.2313 13.5166 18.3313 12.5 18.3313H7.49997C6.4833 18.3313 5.61663 18.2313 4.8833 18.0147C5.06663 15.848 7.29163 14.1396 9.99997 14.1396C12.7083 14.1396 14.9333 15.848 15.1166 18.0147Z" stroke="#5B5D67" stroke-width="1.5" stroke-linecap="round" stroke-linejoin="round"/>
<path d="M12.5 1.66467H7.49996C3.33329 1.66467 1.66663 3.33134 1.66663 7.49801V12.498C1.66663 15.648 2.61663 17.373 4.88329 18.0147C5.06663 15.848 7.29163 14.1396 9.99996 14.1396C12.7083 14.1396 14.9333 15.848 15.1166 18.0147C17.3833 17.373 18.3333 15.648 18.3333 12.498V7.49801C18.3333 3.33134 16.6666 1.66467 12.5 1.66467ZM9.99996 11.8063C8.34996 11.8063 7.01662 10.4647 7.01662 8.81469C7.01662 7.16469 8.34996 5.83134 9.99996 5.83134C11.65 5.83134 12.9833 7.16469 12.9833 8.81469C12.9833 10.4647 11.65 11.8063 9.99996 11.8063Z" stroke="#5B5D67" stroke-width="1.5" stroke-linecap="round" stroke-linejoin="round"/>
<path d="M12.9834 8.81465C12.9834 10.4646 11.6501 11.8063 10.0001 11.8063C8.35006 11.8063 7.01672 10.4646 7.01672 8.81465C7.01672 7.16465 8.35006 5.8313 10.0001 5.8313C11.6501 5.8313 12.9834 7.16465 12.9834 8.81465Z" stroke="#5B5D67" stroke-width="1.5" stroke-linecap="round" stroke-linejoin="round"/>
</svg>
