<svg width="20" height="20" viewBox="0 0 20 20" fill="none" xmlns="http://www.w3.org/2000/svg">
<path d="M3.67063 12.9366L7.44563 16.7116C8.99563 18.2616 11.5123 18.2616 13.0706 16.7116L16.729 13.0533C18.279 11.5033 18.279 8.98662 16.729 7.42829L12.9456 3.66163C12.154 2.86996 11.0623 2.44496 9.94563 2.50329L5.77896 2.70329C4.1123 2.77829 2.7873 4.10329 2.70396 5.76163L2.50396 9.92829C2.45396 11.0533 2.87896 12.145 3.67063 12.9366Z" stroke="#202224" stroke-width="1.25" stroke-linecap="round" stroke-linejoin="round"/>
<path d="M8.11226 10.1866C9.26286 10.1866 10.1956 9.25389 10.1956 8.10329C10.1956 6.9527 9.26286 6.01996 8.11226 6.01996C6.96167 6.01996 6.02893 6.9527 6.02893 8.10329C6.02893 9.25389 6.96167 10.1866 8.11226 10.1866Z" stroke="#202224" stroke-width="1.25" stroke-linecap="round"/>
<path d="M11.0289 14.3533L14.3623 11.02" stroke="#202224" stroke-width="1.25" stroke-miterlimit="10" stroke-linecap="round" stroke-linejoin="round"/>
</svg>
