<svg width="20" height="20" viewBox="0 0 20 20" fill="none" xmlns="http://www.w3.org/2000/svg">
<path d="M18.3333 9.08134V3.41467C18.3333 2.16467 17.8 1.66467 16.475 1.66467H13.1083C11.7833 1.66467 11.25 2.16467 11.25 3.41467V9.08134C11.25 10.3313 11.7833 10.8313 13.1083 10.8313H16.475C17.8 10.8313 18.3333 10.3313 18.3333 9.08134Z" stroke="#202224" stroke-width="1.25" stroke-linecap="round" stroke-linejoin="round"/>
<path d="M18.3333 16.5813V15.0813C18.3333 13.8313 17.8 13.3313 16.475 13.3313H13.1083C11.7833 13.3313 11.25 13.8313 11.25 15.0813V16.5813C11.25 17.8313 11.7833 18.3313 13.1083 18.3313H16.475C17.8 18.3313 18.3333 17.8313 18.3333 16.5813Z" stroke="#202224" stroke-width="1.25" stroke-linecap="round" stroke-linejoin="round"/>
<path d="M8.74996 10.9147V16.5813C8.74996 17.8313 8.21663 18.3313 6.89163 18.3313H3.52496C2.19996 18.3313 1.66663 17.8313 1.66663 16.5813V10.9147C1.66663 9.66467 2.19996 9.16467 3.52496 9.16467H6.89163C8.21663 9.16467 8.74996 9.66467 8.74996 10.9147Z" stroke="#202224" stroke-width="1.25" stroke-linecap="round" stroke-linejoin="round"/>
<path d="M8.74996 3.41467V4.91467C8.74996 6.16467 8.21663 6.66467 6.89163 6.66467H3.52496C2.19996 6.66467 1.66663 6.16467 1.66663 4.91467V3.41467C1.66663 2.16467 2.19996 1.66467 3.52496 1.66467H6.89163C8.21663 1.66467 8.74996 2.16467 8.74996 3.41467Z" stroke="#202224" stroke-width="1.25" stroke-linecap="round" stroke-linejoin="round"/>
</svg>
