<svg width="20" height="20" viewBox="0 0 20 20" fill="none" xmlns="http://www.w3.org/2000/svg">
<path d="M17.425 9.26463C17.425 13.3396 14.4666 17.1563 10.425 18.273C10.15 18.348 9.84995 18.348 9.57495 18.273C5.53328 17.1563 2.57495 13.3396 2.57495 9.26463V5.60629C2.57495 4.92295 3.09163 4.14796 3.7333 3.88962L8.37494 1.98965C9.41661 1.56465 10.5916 1.56465 11.6333 1.98965L16.275 3.88962C16.9083 4.14796 17.4333 4.92295 17.4333 5.60629L17.425 9.26463Z" stroke="#202224" stroke-width="1.25" stroke-linecap="round" stroke-linejoin="round"/>
<path d="M10 10.4146C10.9205 10.4146 11.6667 9.66844 11.6667 8.74797C11.6667 7.82749 10.9205 7.0813 10 7.0813C9.07957 7.0813 8.33337 7.82749 8.33337 8.74797C8.33337 9.66844 9.07957 10.4146 10 10.4146Z" stroke="#202224" stroke-width="1.25" stroke-miterlimit="10" stroke-linecap="round" stroke-linejoin="round"/>
<path d="M10 10.4147V12.9147" stroke="#202224" stroke-width="1.25" stroke-miterlimit="10" stroke-linecap="round" stroke-linejoin="round"/>
</svg>
