<svg width="20" height="20" viewBox="0 0 20 20" fill="none" xmlns="http://www.w3.org/2000/svg">
<path d="M18.0501 8.698L17.2334 12.1813C16.5334 15.1897 15.1501 16.4063 12.5501 16.1563C12.1334 16.123 11.6834 16.048 11.2001 15.9313L9.80011 15.598C6.32511 14.773 5.25011 13.0563 6.06678 9.573L6.88344 6.08134C7.05011 5.373 7.25011 4.75634 7.50011 4.248C8.47511 2.23134 10.1334 1.68967 12.9168 2.348L14.3084 2.673C17.8001 3.48967 18.8668 5.21467 18.0501 8.698Z" stroke="#202224" stroke-width="1.25" stroke-linecap="round" stroke-linejoin="round"/>
<path d="M12.5503 16.1564C12.0336 16.5064 11.3836 16.7981 10.592 17.0564L9.27528 17.4897C5.96695 18.5564 4.22528 17.6647 3.15028 14.3564L2.08362 11.0647C1.01695 7.75641 1.90028 6.00641 5.20862 4.93974L6.52528 4.50641C6.86695 4.39808 7.19195 4.30641 7.50028 4.24808C7.25028 4.75641 7.05028 5.37308 6.88362 6.08141L6.06695 9.57308C5.25028 13.0564 6.32528 14.7731 9.80028 15.5981L11.2003 15.9314C11.6836 16.0481 12.1336 16.1231 12.5503 16.1564Z" stroke="#202224" stroke-width="1.25" stroke-linecap="round" stroke-linejoin="round"/>
</svg>
