<svg width="19" height="22" viewBox="0 0 19 22" fill="none" xmlns="http://www.w3.org/2000/svg">
<path d="M9.24901 21.0304C7.20423 21.0304 5.16043 20.8838 3.13026 20.591C2.35166 20.4761 1.66438 19.7654 1.56429 18.973C1.20531 16.0453 1.04043 13.0783 1.07379 10.1526C1.07696 9.88178 1.29542 9.66284 1.56624 9.65943C6.66454 9.59464 11.8344 9.59464 16.9328 9.65943C17.2036 9.66284 17.422 9.88178 17.4252 10.1526C17.4586 13.0783 17.2937 16.0453 16.9349 18.971C16.8346 19.7654 16.1473 20.4761 15.3704 20.5908C13.3393 20.8838 11.2938 21.0304 9.24901 21.0304ZM2.06769 10.6509C2.05722 13.3744 2.22063 16.1301 2.55429 18.8497C2.59788 19.1943 2.94103 19.5548 3.27419 19.604C7.23881 20.1761 11.2604 20.1763 15.2265 19.6037C15.558 19.5548 15.9011 19.1943 15.9449 18.8478C16.2784 16.1298 16.4418 13.3744 16.4313 10.6509C11.6632 10.5939 6.83575 10.5939 2.06769 10.6509Z" fill="#202224"/>
<path d="M16.9379 10.6569C16.9328 10.6569 16.9274 10.6569 16.9223 10.6569C11.8313 10.5923 6.66992 10.5923 1.57941 10.6569C1.57405 10.6561 1.56747 10.6569 1.56211 10.6569C1.12203 10.6569 0.702168 10.4847 0.407726 10.1832C0.132524 9.90163 -0.0118967 9.53388 0.000767471 9.14787C0.0326714 8.13668 0.0938004 7.10894 0.181963 6.09434C0.252833 5.29723 0.955451 4.60362 1.7813 4.514C6.73787 3.99599 11.7621 3.99623 16.7167 4.51376C17.5445 4.60362 18.2472 5.29723 18.318 6.09312C18.4062 7.10894 18.4673 8.13668 18.4992 9.14836C18.5119 9.53388 18.3675 9.90163 18.0923 10.1832C17.7978 10.4847 17.3777 10.6569 16.9379 10.6569ZM9.25 9.6106C11.8172 9.6106 14.3841 9.62692 16.9333 9.65931C17.1064 9.66856 17.2698 9.59769 17.3787 9.48615C17.4376 9.42599 17.5068 9.32395 17.5022 9.1805C17.4708 8.18637 17.4108 7.17713 17.3244 6.18056C17.2961 5.86541 16.9562 5.54321 16.6111 5.5057C11.7273 4.99524 6.77269 4.99548 1.887 5.50594C1.54385 5.54321 1.20386 5.86541 1.17561 6.18177C1.08916 7.17713 1.02924 8.18637 0.997828 9.18002C0.993201 9.32395 1.06237 9.42599 1.1213 9.48615C1.22895 9.59647 1.3892 9.65931 1.56187 9.65931C1.56382 9.65931 1.56577 9.65931 1.56796 9.65931C4.11662 9.62692 6.68331 9.6106 9.25 9.6106Z" fill="#202224"/>
<path d="M11.4431 10.6119H11.4414C9.98011 10.6066 8.51935 10.6066 7.0581 10.6119H7.05639C6.92415 10.6119 6.79727 10.5593 6.70375 10.466C6.60974 10.372 6.55713 10.2444 6.55762 10.1117C6.56322 8.29316 6.58831 6.45295 6.63263 4.64222C6.63896 4.37725 6.85133 4.16366 7.11631 4.15587C8.53177 4.11349 9.96769 4.11349 11.3832 4.15587C11.6481 4.16366 11.8605 4.37725 11.8668 4.64222C11.9112 6.45295 11.9362 8.29316 11.9418 10.1117C11.9423 10.2444 11.8897 10.372 11.7957 10.466C11.7022 10.5593 11.5753 10.6119 11.4431 10.6119ZM9.24973 9.61047C9.81378 9.61047 10.3781 9.6112 10.9423 9.61267C10.9348 8.12389 10.9141 6.62392 10.8807 5.14051C9.79648 5.11518 8.70298 5.11518 7.61873 5.14051C7.58537 6.62392 7.56467 8.12389 7.55712 9.61267C8.1214 9.6112 8.68569 9.61047 9.24973 9.61047Z" fill="#202224"/>
<path d="M9.24938 21.032C8.73819 21.032 8.22699 21.023 7.71945 21.0047C7.45667 20.9952 7.24625 20.7831 7.23894 20.5201C7.1425 17.0691 7.09769 13.5667 7.10548 10.1101C7.10621 9.83566 7.32832 9.6133 7.60304 9.61257C8.70044 9.60965 9.79832 9.60965 10.8957 9.61257C11.1704 9.6133 11.3925 9.83566 11.3933 10.1101C11.4011 13.5667 11.3563 17.0691 11.2598 20.5201C11.2525 20.7831 11.0421 20.9952 10.7793 21.0047C10.2718 21.023 9.76057 21.032 9.24938 21.032ZM8.22334 20.022C8.90574 20.0386 9.59302 20.0386 10.2754 20.022C10.3582 16.8986 10.3989 13.737 10.3965 10.6089C9.63174 10.6074 8.86702 10.6074 8.1023 10.6089C8.09986 13.737 8.14053 16.8986 8.22334 20.022Z" fill="#202224"/>
<path d="M6.05517 5.19253C5.33404 5.19253 4.62095 4.70301 4.176 3.90395C3.72374 3.09125 3.67844 2.19502 4.06056 1.62075C4.25223 1.33215 4.73079 0.865526 5.77388 0.982913C8.17009 1.31973 9.40947 3.67113 9.73265 4.38373L9.73216 4.38398C9.79792 4.50453 9.81205 4.64944 9.76626 4.78387C9.70367 4.96774 9.53977 5.09853 9.34639 5.11898C9.32594 5.12118 9.30597 5.12142 9.28478 5.12093V5.12166C9.27236 5.11971 7.66401 5.11801 6.10631 5.1918C6.08927 5.19229 6.07222 5.19253 6.05517 5.19253ZM5.44972 1.96073C5.23249 1.96073 5.00209 2.00676 4.89104 2.17359C4.72178 2.42785 4.78753 2.95146 5.04764 3.41882C5.31651 3.90176 5.71811 4.20108 6.06662 4.19499C7.19007 4.14165 7.94749 4.11778 8.46234 4.11413C7.96746 3.29997 7.04249 2.16847 5.64894 1.97242C5.5866 1.9656 5.51889 1.96073 5.44972 1.96073Z" fill="#202224"/>
<path d="M12.5406 5.19677C12.5235 5.19677 12.5065 5.19653 12.4894 5.19604C11.0304 5.12468 9.46271 5.11689 9.30295 5.12152V5.12079C9.28346 5.12152 9.26471 5.12103 9.2462 5.11932C9.05186 5.10033 8.88625 4.97003 8.82268 4.78543C8.77738 4.65392 8.78956 4.51218 8.85142 4.39284C9.18921 3.65052 10.4264 1.31983 12.7975 0.99129C13.8577 0.876095 14.3343 1.34345 14.5259 1.63254C14.9076 2.20803 14.8618 3.10377 14.409 3.91452C13.9651 4.70993 13.2532 5.19677 12.5406 5.19677ZM10.1249 4.11496C10.6412 4.1191 11.4006 4.14418 12.5301 4.19922C12.8674 4.20434 13.2702 3.90795 13.5381 3.42841C13.798 2.96252 13.864 2.43915 13.6947 2.18391C13.5476 1.96205 13.1926 1.95109 12.9203 1.98129C11.5387 2.17271 10.6181 3.30202 10.1249 4.11496Z" fill="#202224"/>
</svg>
