<svg width="20" height="20" viewBox="0 0 20 20" fill="none" xmlns="http://www.w3.org/2000/svg">
<path d="M17.0833 9.41463V5.86465C17.0833 2.50632 16.3 1.66464 13.15 1.66464H6.84996C3.69996 1.66464 2.91663 2.50632 2.91663 5.86465V15.248C2.91663 17.4646 4.1333 17.9896 5.6083 16.4063L5.61662 16.398C6.29995 15.673 7.34162 15.7313 7.93328 16.523L8.77496 17.648" stroke="#202224" stroke-width="1.25" stroke-linecap="round" stroke-linejoin="round"/>
<path d="M6.66663 5.83133H13.3333" stroke="#202224" stroke-width="1.25" stroke-linecap="round" stroke-linejoin="round"/>
<path d="M7.5 9.16464H12.5" stroke="#202224" stroke-width="1.25" stroke-linecap="round" stroke-linejoin="round"/>
<path d="M15.1759 12.3065L12.2259 15.2566C12.1092 15.3732 12.0009 15.5899 11.9759 15.7482L11.8175 16.8732C11.7592 17.2816 12.0426 17.5649 12.4509 17.5066L13.5759 17.3482C13.7342 17.3232 13.9592 17.2149 14.0676 17.0982L17.0176 14.1482C17.5259 13.6399 17.7676 13.0482 17.0176 12.2982C16.2759 11.5566 15.6842 11.7982 15.1759 12.3065Z" stroke="#202224" stroke-width="1.25" stroke-miterlimit="10" stroke-linecap="round" stroke-linejoin="round"/>
<path d="M14.7494 12.7315C14.9994 13.6315 15.6994 14.3315 16.5994 14.5815" stroke="#202224" stroke-width="1.25" stroke-miterlimit="10" stroke-linecap="round" stroke-linejoin="round"/>
</svg>
