<svg width="20" height="20" viewBox="0 0 20 20" fill="none" xmlns="http://www.w3.org/2000/svg">
<path d="M6.66663 10.1647H12.5" stroke="#202224" stroke-width="1.25" stroke-miterlimit="10" stroke-linecap="round" stroke-linejoin="round"/>
<path d="M6.66663 13.498H10.3166" stroke="#202224" stroke-width="1.25" stroke-miterlimit="10" stroke-linecap="round" stroke-linejoin="round"/>
<path d="M8.33329 4.99801H11.6666C13.3333 4.99801 13.3333 4.16467 13.3333 3.33134C13.3333 1.66467 12.5 1.66467 11.6666 1.66467H8.33329C7.49996 1.66467 6.66663 1.66467 6.66663 3.33134C6.66663 4.99801 7.49996 4.99801 8.33329 4.99801Z" stroke="#202224" stroke-width="1.25" stroke-miterlimit="10" stroke-linecap="round" stroke-linejoin="round"/>
<path d="M13.3333 3.34796C16.1083 3.49796 17.5 4.52296 17.5 8.33129V13.3313C17.5 16.6646 16.6667 18.3313 12.5 18.3313H7.5C3.33333 18.3313 2.5 16.6646 2.5 13.3313V8.33129C2.5 4.53129 3.89167 3.49796 6.66667 3.34796" stroke="#202224" stroke-width="1.25" stroke-miterlimit="10" stroke-linecap="round" stroke-linejoin="round"/>
</svg>
