<svg width="20" height="20" viewBox="0 0 20 20" fill="none" xmlns="http://www.w3.org/2000/svg">
<path d="M10.6523 20.002H9.35574C9.15569 20.0019 8.95893 19.9511 8.78394 19.8541C8.60895 19.7572 8.46147 19.6173 8.35534 19.4478C8.2613 19.2997 7.68707 18.3373 7.39496 17.7671L6.35854 17.3409C5.72629 17.541 4.58784 17.8251 4.4898 17.8491C4.2943 17.8941 4.09059 17.8887 3.89776 17.8334C3.70494 17.7781 3.52931 17.6747 3.38736 17.533L2.46899 16.6146C2.32709 16.4728 2.22363 16.2972 2.16832 16.1043C2.11302 15.9114 2.1077 15.7077 2.15286 15.5122C2.19288 15.3401 2.46499 14.2537 2.66106 13.6434L2.23489 12.611C1.63465 12.3069 0.634254 11.7007 0.554222 11.6506C0.384643 11.5445 0.244817 11.397 0.147873 11.222C0.0509278 11.0471 4.44152e-05 10.8503 0 10.6502L0 9.34973C4.44152e-05 9.14968 0.0509278 8.95292 0.147873 8.77793C0.244817 8.60294 0.384643 8.45545 0.554222 8.34933C0.702281 8.25529 1.66467 7.68106 2.23489 7.38894L2.66106 6.35653C2.46098 5.72428 2.17687 4.58582 2.15286 4.48778C2.10789 4.29229 2.11331 4.08858 2.1686 3.89575C2.22389 3.70292 2.32725 3.5273 2.46899 3.38534L3.38736 2.46697C3.5292 2.32508 3.70482 2.22161 3.89768 2.16631C4.09055 2.11101 4.29431 2.10568 4.4898 2.15085C4.66186 2.19086 5.7483 2.46297 6.35854 2.65905L7.39096 2.23288C7.69508 1.63264 8.30132 0.63224 8.35134 0.552208C8.45747 0.382629 8.60495 0.242803 8.77994 0.145858C8.95493 0.0489137 9.15169 -0.00196974 9.35174 -0.00201416H10.6483C10.8483 -0.00196974 11.0451 0.0489137 11.2201 0.145858C11.395 0.242803 11.5425 0.382629 11.6487 0.552208C11.7427 0.700267 12.3169 1.66265 12.609 2.23288L13.6415 2.65905C14.2737 2.45897 15.4122 2.17486 15.5102 2.15085C15.7057 2.10588 15.9094 2.11129 16.1022 2.16658C16.2951 2.22188 16.4707 2.32524 16.6126 2.46697L17.531 3.38534C17.6729 3.52719 17.7764 3.70281 17.8317 3.89567C17.887 4.08853 17.8923 4.2923 17.8471 4.48778C17.8071 4.65985 17.535 5.74628 17.3389 6.35653L17.7651 7.38894C18.3653 7.69306 19.3657 8.29931 19.4458 8.34933C19.6154 8.45545 19.7552 8.60294 19.8521 8.77793C19.9491 8.95292 20 9.14968 20 9.34973V10.6462C20 10.8463 19.9491 11.0431 19.8521 11.218C19.7552 11.393 19.6154 11.5405 19.4458 11.6466C19.2977 11.7407 18.3353 12.3149 17.7651 12.607L17.3469 13.6434C17.547 14.2757 17.8311 15.4142 17.8551 15.5122C17.9001 15.7077 17.8947 15.9114 17.8394 16.1042C17.7841 16.2971 17.6808 16.4727 17.539 16.6146L16.6206 17.533C16.4787 17.6747 16.3031 17.7781 16.1102 17.8334C15.9174 17.8887 15.7137 17.8941 15.5182 17.8491C15.3461 17.8091 14.2597 17.537 13.6495 17.3409L12.617 17.7671C12.3129 18.3673 11.7067 19.3677 11.6567 19.4478C11.5502 19.6179 11.4021 19.7581 11.2263 19.8551C11.0506 19.9521 10.853 20.0026 10.6523 20.002ZM6.38856 16.1524L8.20328 16.9067L8.29332 17.1068C8.47739 17.507 9.14166 18.6314 9.29372 18.8615C9.30066 18.8727 9.31039 18.882 9.32197 18.8883C9.33354 18.8946 9.34656 18.8978 9.35974 18.8975H10.6563C10.6694 18.8978 10.6825 18.8946 10.694 18.8883C10.7056 18.882 10.7154 18.8727 10.7223 18.8615C10.8403 18.6735 11.5226 17.533 11.7227 17.1068L11.8127 16.9067L13.6335 16.1524L13.8335 16.2265C14.2477 16.3785 15.5102 16.7027 15.7763 16.7667C15.7887 16.7703 15.8018 16.7704 15.8142 16.7669C15.8266 16.7633 15.8378 16.7563 15.8463 16.7467L16.7647 15.8283C16.7741 15.8196 16.781 15.8085 16.7845 15.7961C16.7881 15.7838 16.7881 15.7707 16.7847 15.7583C16.7347 15.5442 16.4106 14.2537 16.2445 13.8155L16.1705 13.6154L16.9208 11.7987L17.1208 11.7087C17.521 11.5246 18.6455 10.8603 18.8755 10.7083C18.8868 10.7013 18.896 10.6916 18.9023 10.68C18.9086 10.6684 18.9118 10.6554 18.9116 10.6422V9.34573C18.9118 9.33254 18.9086 9.31952 18.9023 9.30795C18.896 9.29637 18.8868 9.28664 18.8755 9.2797C18.6875 9.16165 17.547 8.47938 17.1208 8.2793L16.9208 8.18926L16.1665 6.36853L16.2405 6.16845C16.3926 5.75429 16.7167 4.49178 16.7807 4.22568C16.7835 4.21326 16.7831 4.20035 16.7796 4.18811C16.7761 4.17588 16.7696 4.16471 16.7607 4.15565L15.8423 3.23728C15.8336 3.22784 15.8225 3.22099 15.8101 3.21746C15.7978 3.21393 15.7847 3.21387 15.7723 3.21727C15.5582 3.26729 14.2717 3.59142 13.8295 3.75749L13.6295 3.83152L11.8047 3.08122L11.7147 2.88114C11.5306 2.48098 10.8663 1.35653 10.7143 1.12644C10.7073 1.11522 10.6976 1.10601 10.686 1.09969C10.6745 1.09338 10.6614 1.09019 10.6483 1.09042H9.35974C9.34656 1.09019 9.33354 1.09338 9.32197 1.09969C9.31039 1.10601 9.30066 1.11522 9.29372 1.12644C9.17567 1.31451 8.4934 2.45497 8.29332 2.88114L8.20328 3.08122L6.38255 3.83552L6.18247 3.76149C5.76831 3.60943 4.5058 3.2853 4.2397 3.22128C4.22733 3.21763 4.21418 3.21758 4.20178 3.22112C4.18938 3.22466 4.17824 3.23165 4.16967 3.24128L3.2513 4.15965C3.24186 4.16837 3.23501 4.17951 3.23148 4.19186C3.22795 4.20421 3.22788 4.21729 3.23129 4.22968C3.28131 4.44376 3.60544 5.73428 3.77151 6.17246L3.84554 6.37254L3.09524 8.19727L2.89516 8.2873C2.495 8.47138 1.37055 9.13564 1.14046 9.2877C1.12924 9.29464 1.12003 9.30437 1.11371 9.31595C1.1074 9.32753 1.1042 9.34054 1.10444 9.35373V10.6502C1.1042 10.6634 1.1074 10.6764 1.11371 10.688C1.12003 10.6996 1.12924 10.7093 1.14046 10.7163C1.32853 10.8343 2.46899 11.5166 2.89516 11.7167L3.09524 11.8067L3.84954 13.6274L3.77551 13.8275C3.62345 14.2417 3.29932 15.5042 3.23529 15.7703C3.2325 15.7827 3.23287 15.7956 3.23637 15.8079C3.23986 15.8201 3.24637 15.8313 3.2553 15.8403L4.17367 16.7587C4.18238 16.7681 4.19353 16.775 4.20588 16.7785C4.21823 16.782 4.23131 16.7821 4.2437 16.7787C4.45778 16.7287 5.7443 16.4046 6.18647 16.2385L6.38856 16.1524ZM10.004 14.6719C9.0796 14.6719 8.17595 14.3977 7.40734 13.8842C6.63873 13.3706 6.03966 12.6406 5.68591 11.7866C5.33216 10.9326 5.2396 9.9928 5.41994 9.08616C5.60028 8.17952 6.04542 7.34671 6.69908 6.69306C7.35273 6.03941 8.18553 5.59427 9.09218 5.41392C9.99882 5.23358 10.9386 5.32614 11.7926 5.67989C12.6467 6.03365 13.3766 6.63271 13.8902 7.40132C14.4038 8.16994 14.6779 9.07358 14.6779 9.99799C14.6758 11.2369 14.1827 12.4245 13.3066 13.3006C12.4305 14.1766 11.2429 14.6697 10.004 14.6719ZM10.004 6.43056C9.29843 6.43056 8.60871 6.63978 8.02205 7.03178C7.43538 7.42377 6.97814 7.98093 6.70813 8.63279C6.43812 9.28465 6.36747 10.0019 6.50512 10.694C6.64277 11.386 6.98254 12.0216 7.48145 12.5205C7.98036 13.0195 8.61602 13.3592 9.30803 13.4969C10 13.6345 10.7173 13.5639 11.3692 13.2939C12.0211 13.0238 12.5782 12.5666 12.9702 11.9799C13.3622 11.3933 13.5714 10.7036 13.5714 9.99799C13.5704 9.05217 13.1942 8.1454 12.5254 7.4766C11.8566 6.80781 10.9498 6.43162 10.004 6.43056Z" fill="#202224"/>
</svg>
