<svg width="20" height="20" viewBox="0 0 20 20" fill="none" xmlns="http://www.w3.org/2000/svg">
<path d="M14.1666 15.3563H10.8333L7.12495 17.823C6.57495 18.1896 5.83329 17.798 5.83329 17.1313V15.3563C3.33329 15.3563 1.66663 13.6897 1.66663 11.1897V6.18962C1.66663 3.68962 3.33329 2.02295 5.83329 2.02295H14.1666C16.6666 2.02295 18.3333 3.68962 18.3333 6.18962V11.1897C18.3333 13.6897 16.6666 15.3563 14.1666 15.3563Z" stroke="white" stroke-width="1.25" stroke-miterlimit="10" stroke-linecap="round" stroke-linejoin="round"/>
<path d="M9.99989 9.46454V9.28957C9.99989 8.7229 10.3499 8.42289 10.6999 8.18122C11.0416 7.94789 11.3832 7.6479 11.3832 7.0979C11.3832 6.33123 10.7666 5.71454 9.99989 5.71454C9.23322 5.71454 8.61658 6.33123 8.61658 7.0979" stroke="white" stroke-width="1.25" stroke-linecap="round" stroke-linejoin="round"/>
<path d="M9.99629 11.4563H10.0038" stroke="white" stroke-width="1.25" stroke-linecap="round" stroke-linejoin="round"/>
</svg>
