<svg width="20" height="20" viewBox="0 0 20 20" fill="none" xmlns="http://www.w3.org/2000/svg">
<path d="M7.63338 9.05631C7.55005 9.04798 7.45005 9.04798 7.35838 9.05631C5.37505 8.98964 3.80005 7.36464 3.80005 5.36464C3.80005 3.32298 5.45005 1.66464 7.50005 1.66464C9.54172 1.66464 11.2 3.32298 11.2 5.36464C11.1917 7.36464 9.61672 8.98964 7.63338 9.05631Z" stroke="#202224" stroke-width="1.25" stroke-linecap="round" stroke-linejoin="round"/>
<path d="M13.675 3.33133C15.2916 3.33133 16.5916 4.63966 16.5916 6.248C16.5916 7.823 15.3417 9.10633 13.7833 9.16466C13.7167 9.15633 13.6417 9.15633 13.5667 9.16466" stroke="#202224" stroke-width="1.25" stroke-linecap="round" stroke-linejoin="round"/>
<path d="M3.4666 12.1313C1.44993 13.4813 1.44993 15.6813 3.4666 17.023C5.75827 18.5563 9.5166 18.5563 11.8083 17.023C13.8249 15.673 13.8249 13.473 11.8083 12.1313C9.52494 10.6063 5.7666 10.6063 3.4666 12.1313Z" stroke="#202224" stroke-width="1.25" stroke-linecap="round" stroke-linejoin="round"/>
<path d="M15.2833 16.6646C15.8833 16.5396 16.45 16.298 16.9167 15.9396C18.2167 14.9646 18.2167 13.3563 16.9167 12.3813C16.4583 12.0313 15.9 11.798 15.3083 11.6646" stroke="#202224" stroke-width="1.25" stroke-linecap="round" stroke-linejoin="round"/>
</svg>
